<?xml version="1.0" encoding="UTF-8" standalone="no"?>
<svg width="90px" height="90px" viewBox="0 0 90 90" version="1.1" xmlns="http://www.w3.org/2000/svg" xmlns:xlink="http://www.w3.org/1999/xlink" xmlns:sketch="http://www.bohemiancoding.com/sketch/ns">
    <!-- Generator: Sketch 3.3.2 (12043) - http://www.bohemiancoding.com/sketch -->
    <title>Artboard 1</title>
    <desc>Created with Sketch.</desc>
    <defs></defs>
    <g id="Page-1" stroke="none" stroke-width="1" fill="none" fill-rule="evenodd" sketch:type="MSPage">
        <g id="Artboard-1" sketch:type="MSArtboardGroup" fill="#000000">
            <path d="M64.762125,27.9545 L64.762125,51.8875 C64.762125,53.3855 63.547125,54.6005 62.049125,54.6005 C60.551125,54.6005 59.336125,53.3855 59.336125,51.8875 L59.336125,34.5095 L29.878125,63.9675 C29.346125,64.4995 28.652125,64.7595 27.957125,64.7595 C27.262125,64.7595 26.567125,64.4995 26.035125,63.9675 C24.972125,62.9035 24.972125,61.1885 26.035125,60.1365 L55.492125,30.6685 L38.116125,30.6685 C36.618125,30.6685 35.403125,29.4525 35.403125,27.9555 C35.403125,26.4565 36.618125,25.2405 38.116125,25.2405 L62.049125,25.2405 C62.744125,25.2405 63.439125,25.5005 63.970125,26.0325 C64.502125,26.5645 64.762125,27.2595 64.762125,27.9545 L64.762125,27.9545 Z" id="Shape" sketch:type="MSShapeGroup" transform="translate(45.000000, 45.000000) rotate(-135.000000) translate(-45.000000, -45.000000) "></path>
        </g>
    </g>
</svg>