<svg xmlns="http://www.w3.org/2000/svg" xmlns:xlink="http://www.w3.org/1999/xlink" version="1.1" x="0px" y="0px" viewBox="0 0 100 100" enable-background="new 0 0 100 100" xml:space="preserve"><g><path fill="#000000" d="M43.824,60.007L14.269,89.573h17.377c1.498,0,2.713,1.215,2.713,2.713c0,1.498-1.216,2.713-2.713,2.713   H7.713c-0.695,0-1.389-0.26-1.921-0.792C5.26,93.676,5,92.981,5,92.287V68.365c0-1.509,1.216-2.713,2.713-2.713   s2.713,1.205,2.713,2.713v17.377l29.566-29.566c1.064-1.064,2.779-1.064,3.832,0C44.888,57.229,44.888,58.955,43.824,60.007z"></path></g><g><path fill="#000000" d="M95,7.714v23.933c0,1.498-1.215,2.713-2.713,2.713c-1.498,0-2.713-1.215-2.713-2.713V14.269L60.116,43.727   c-0.532,0.532-1.226,0.792-1.921,0.792c-0.695,0-1.39-0.26-1.922-0.792c-1.063-1.064-1.063-2.779,0-3.831l29.457-29.468H68.354   c-1.498,0-2.713-1.216-2.713-2.713C65.641,6.216,66.856,5,68.354,5h23.933c0.695,0,1.39,0.26,1.921,0.792   C94.74,6.324,95,7.019,95,7.714z"></path></g></svg>