<svg xmlns="http://www.w3.org/2000/svg" xmlns:xlink="http://www.w3.org/1999/xlink" version="1.1" x="0px" y="0px" viewBox="0 0 100 100" enable-background="new 0 0 100 100" xml:space="preserve"><g><path fill="#000000" d="M94.202,9.635L64.746,39.091h17.376c1.498,0,2.713,1.215,2.713,2.713c0,1.498-1.215,2.713-2.713,2.713   H58.19c-0.695,0-1.389-0.26-1.921-0.792c-0.25-0.26-0.445-0.554-0.575-0.868c-0.033-0.076-0.065-0.152-0.098-0.239   c-0.076-0.26-0.119-0.543-0.119-0.814V17.873c0-1.498,1.216-2.713,2.713-2.713s2.713,1.216,2.713,2.713V35.26L90.36,5.793   c1.064-1.053,2.779-1.053,3.842,0C95.266,6.856,95.266,8.571,94.202,9.635z"></path></g><g><path fill="#000000" d="M44.623,58.096v23.921c0,1.498-1.216,2.713-2.713,2.713c-1.498,0-2.713-1.216-2.713-2.713V64.64   L9.631,94.205c-0.532,0.532-1.226,0.792-1.921,0.792c-0.695,0-1.39-0.26-1.921-0.792c-1.053-1.064-1.053-2.779,0-3.831   l29.576-29.576H17.978c-1.498,0-2.713-1.216-2.713-2.713c0-1.498,1.216-2.713,2.713-2.713H41.91c0.065,0,0.119,0.011,0.184,0.022   c0.043-0.011,0.087,0,0.12,0.011c0.098,0.011,0.206,0.022,0.304,0.043c0.022,0,0.032,0.011,0.054,0.011   c0.022,0.011,0.033,0.011,0.055,0.022c0.108,0.022,0.206,0.054,0.304,0.098c0.087,0.033,0.163,0.076,0.239,0.108   c0.163,0.087,0.325,0.196,0.466,0.304c0.065,0.065,0.13,0.119,0.196,0.184c0.326,0.325,0.554,0.727,0.684,1.151   c0.022,0.087,0.043,0.163,0.055,0.25C44.602,57.748,44.623,57.922,44.623,58.096z"></path></g></svg>