<?xml version="1.0" encoding="utf-8"?>
<!-- Generator: Adobe Illustrator 19.0.0, SVG Export Plug-In . SVG Version: 6.00 Build 0)  -->
<svg version="1.1" id="Layer_1" xmlns="http://www.w3.org/2000/svg" xmlns:xlink="http://www.w3.org/1999/xlink" x="0px" y="0px"
	 viewBox="0 0 80 80" style="enable-background:new 0 0 80 80;" xml:space="preserve">
<style type="text/css">
	.st0{fill-rule:evenodd;clip-rule:evenodd;fill:#E41E26;}
</style>
<path class="st0" d="M39.8,0l6.8,0.3l4.5,5.6l-5.8,3.2l3.5,4.2l-4.5,2.4l2.5,3l-3.6,1.9l2.1,2.8l-2.4,1.4l1.4,1.8l-2.1,1.3l1.2,1.4
	l-1.7,1l1,1.4l-1.4,0.7H40l1-1l-1-1.3l1.4-0.9L40,27.5l1.8-1.4l-1.7-1.7l2.4-1.5l-2.6-2.5l3.4-2.3l-3.2-3l3.8-2.7l-4.1-4l5.1-3.7
	L39.8,0L39.8,0z M39.9,79.4L33.2,79l-4.4-5.7l5.8-3.1l-3.4-4.3l4.5-2.3l-2.4-3.1l3.6-1.8l-2-2.8l2.5-1.3L36,52.7l2.1-1.3L36.9,50
	l1.7-1l-1-1.4l1.4-0.7l1.2,0l-1,1l1,1.3l-1.4,0.9l1.3,1.7l-1.9,1.3l1.7,1.7l-2.5,1.5l2.6,2.5l-3.5,2.2l3.2,3L36,66.8l4,4.1l-5.1,3.6
	L39.9,79.4L39.9,79.4z M53.8,76.8l-6.5,2L41.2,75l4.4-5l-4.7-2.8l3.4-3.8l-3.4-2l2.8-3l-2.9-1.9l1.8-2.1l-1.9-1.2l1.5-1.9l-1.6-0.9
	l1.3-1.5l-1.4-1l1.1-1.1l1.2-0.4l-0.6,1.3l1.4,0.9l-1,1.3l1.8,1.1l-1.3,1.9l2.2,1l-1.8,2.2l3.3,1.5l-2.5,3.3l4,1.7l-2.7,3.8l5.2,2.4
	l-3.5,5.2L53.8,76.8L53.8,76.8z M26.3,2.5l6.5-2l6.1,3.8l-4.4,4.9l4.7,2.8l-3.4,3.8l3.3,2l-2.8,3l2.9,1.9l-1.8,2.1l1.9,1.2l-1.6,1.9
	l1.6,0.9L38,30.5l1.4,1l-1.1,1.1L37.1,33l0.6-1.3l-1.4-0.9l1-1.3l-1.8-1.1l1.3-1.9l-2.2-1.1l1.8-2.2l-3.3-1.5l2.5-3.3l-4-1.7
	l2.7-3.8l-5.2-2.4l3.5-5.2L26.3,2.5L26.3,2.5z M14.2,9.7l5.4-4.1L26.6,7l-2.4,6.2l5.4,1l-1.9,4.7l3.8,0.7L30,23.4l3.4,0.8l-1,2.6
	l2.2,0.5l-0.8,2.4l1.8,0.3l-0.7,1.8l1.6,0.4l-0.6,1.4l-1,0.8l0.1-1.4l-1.6-0.4l0.5-1.6l-2.1-0.4l0.5-2.2L30,28.3l0.9-2.7l-3.6-0.2
	l1.2-3.9l-4.4-0.2l1.2-4.5l-5.7-0.5l1.5-6.1L14.2,9.7L14.2,9.7z M5.5,20.1l3.6-5.7l7.2-1.1l-0.1,6.6l5.4-0.9l-0.2,5.1l3.9-0.6
	l-0.2,4.1l3.4-0.4l0,2.8l2.2-0.3l0.1,2.5l1.8-0.3l0,2l1.7-0.2l-0.1,1.6l-0.6,1.1l-0.4-1.3l-1.6,0.2l-0.1-1.7l-2.1,0.4l-0.3-2.3
	l-2.3,0.6l-0.1-2.9l-3.5,1l-0.3-4.1l-4.2,1.3l-0.4-4.6l-5.5,1.5l-0.7-6.3L5.5,20.1L5.5,20.1z M0.9,33.5l1.4-6.6l6.3-3.5l2.2,6.2
	l4.7-2.7l1.6,4.8l3.4-1.9l1.3,3.9l3.1-1.6l0.9,2.6l2-1.1l0.9,2.3l1.6-0.9l0.7,1.9l1.5-0.7l0.5,1.5l-0.2,1.2L32,37.7l-1.5,0.7
	l-0.7-1.5L28,38l-1-2l-2,1.4L24,34.7L21,36.8l-1.7-3.8l-3.5,2.7l-2-4.2l-4.6,3.3l-2.8-5.6L0.9,33.5L0.9,33.5z M0.9,46.6L0,39.9
	l4.9-5.4L9,39.7l3.6-4.1l3.1,4l2.6-2.9l2.5,3.3l2.4-2.5l1.7,2.2l1.5-1.6l1.6,1.9l1.2-1.4l1.2,1.5l1.2-1.2l0.9,1.2l0.2,1.2l-1.1-0.8
	l-1.1,1.2l-1.1-1.2L28,42.1l-1.7-1.6l-1.4,2L23,40.3l-2,3l-2.8-3l-2.4,3.6l-3.3-3.3l-3.3,4.7l-4.5-4.4L0.9,46.6L0.9,46.6z M5.8,59.9
	l-3.1-6l2.7-6.7l5.7,3.4l1.9-5.1l4.3,2.7l1.4-3.7l3.4,2.2l1.4-3.2l2.4,1.4l0.9-2.1l2.2,1.2l0.6-1.7l1.7,1l0.7-1.5l1.3,0.8l0.6,1.1
	l-1.3-0.4l-0.7,1.5l-1.5-0.7l-0.7,2l-2.1-0.9l-0.6,2.3l-2.5-1.4l-0.9,3.5l-3.7-1.8l-1,4.3l-4.2-2l-1.5,5.5l-5.8-2.5L5.8,59.9
	L5.8,59.9z M14.6,70.2l-5-4.6l0.2-7.2l6.5,1.3l0.1-5.5l5,1l0.1-3.9l4,0.9l0.2-3.5l2.7,0.5l0.1-2.2l2.5,0.4l0-1.8l1.9,0.4l0.1-1.7
	l1.5,0.3l0.9,0.8L34,45.6l-0.1,1.6L32.2,47l0,2.1L29.9,49l0.2,2.4L27.3,51l0.4,3.6l-4.1-0.5l0.5,4.3L19.5,58l0.5,5.7l-6.3-0.4
	L14.6,70.2L14.6,70.2z M26.9,77.1l-6.3-2.5l-2.3-6.8l6.5-1.1L23,61.5l5-0.8L26.7,57l4-0.6l-1-3.3l2.8-0.5l-0.7-2.1l2.4-0.5l-0.6-1.7
	l1.9-0.3L35,46.3l1.5-0.2l1.2,0.4l-1.3,0.6l0.5,1.6l-1.6,0.4l0.7,2l-2.2,0.7l1,2.2l-2.8,0.6l1.6,3.2l-4,1l2,3.9l-4.5,1.2l2.5,5.1
	l-6,1.8L26.9,77.1L26.9,77.1z M65.7,69.9L60.3,74l-7.1-1.5l2.5-6.1l-5.3-1.1l1.9-4.7l-3.8-0.8L50,56l-3.4-0.8l1-2.6l-2.2-0.5
	l0.8-2.3l-1.8-0.3l0.7-1.8l-1.6-0.5l0.6-1.4l1-0.8L45,46.3l1.6,0.4l-0.5,1.6l2.1,0.4l-0.6,2.2l2.4,0.3l-0.9,2.7l3.6,0.3l-1.2,3.9
	l4.4,0.3l-1.3,4.5l5.7,0.5l-1.6,6.1L65.7,69.9L65.7,69.9z M74.7,59L71,64.7l-7.2,1l0.2-6.6L58.7,60l0.2-5.1L55,55.5l0.2-4.1
	l-3.4,0.4l0-2.8l-2.2,0.3l-0.1-2.5l-1.8,0.3l0-2L46,45.4l0.1-1.6l0.6-1.1l0.3,1.3l1.6-0.2l0.1,1.7l2.1-0.4l0.3,2.3l2.3-0.6l0.1,2.9
	l3.5-1l0.3,4.1l4.2-1.3l0.4,4.6l5.5-1.5L68,61L74.7,59L74.7,59z M79.3,46.3l-1.5,6.6l-6.4,3.4l-2.1-6.3l-4.8,2.7L63,47.9l-3.4,1.9
	l-1.2-3.9l-3.1,1.6l-0.9-2.6l-2,1l-0.9-2.3l-1.6,0.9l-0.7-1.9l-1.5,0.7l-0.5-1.5l0.2-1.2l0.8,1.1l1.5-0.7l0.7,1.5l1.9-1.1l1,2.1
	l2-1.4l1,2.7l2.9-2.1l1.6,3.8l3.5-2.6l2,4.2l4.7-3.3l2.8,5.7L79.3,46.3L79.3,46.3z M79.1,32.2l0.9,6.7l-4.8,5.4l-4.2-5.1l-3.5,4.2
	l-3.2-4l-2.5,3l-2.5-3.2L57,41.7l-1.8-2.2l-1.5,1.7L52,39.3l-1.2,1.4l-1.3-1.5l-1.2,1.2l-1-1.2L47.2,38l1.1,0.8l1.1-1.2l1.1,1.2
	l1.4-1.6l1.7,1.6l1.4-2l1.9,2.1l2-3l2.9,3l2.3-3.7l3.3,3.3l3.2-4.7l4.6,4.3L79.1,32.2L79.1,32.2z M74.6,19.8l3,6L75,32.5L69.3,29
	l-2,5.1l-4.3-2.7L61.6,35l-3.4-2.2l-1.4,3.2l-2.4-1.5l-0.9,2.1l-2.2-1.2l-0.6,1.7l-1.7-1l-0.7,1.5L47,36.7l-0.6-1.1l1.3,0.4l0.7-1.5
	l1.5,0.8l0.8-2l2.1,0.9l0.7-2.3l2.5,1.4l0.9-3.5l3.7,1.9l1-4.2l4.2,2l1.5-5.5l5.7,2.6L74.6,19.8L74.6,19.8z M65.5,9l5,4.6l-0.2,7.2
	l-6.5-1.3L63.7,25l-5-1.1l-0.1,3.9l-4-0.9l-0.2,3.5l-2.7-0.5l-0.1,2.2l-2.5-0.4l0,1.8l-1.9-0.4l-0.1,1.7l-1.5-0.3l-0.9-0.8l1.4-0.1
	l0.1-1.6l1.6,0.2l0-2.1l2.3,0.1l-0.2-2.4l2.8,0.4l-0.4-3.6l4.1,0.5l-0.5-4.3l4.6,0.4L60,15.5l6.3,0.4L65.5,9L65.5,9z M53.8,2.2
	L60,4.8l2.3,6.9l-6.5,1l1.8,5.2l-5,0.7l1.3,3.7l-4,0.5l1,3.3l-2.8,0.4l0.7,2.1l-2.4,0.5l0.6,1.7l-1.9,0.3l0.4,1.6L43.8,33l-1.2-0.4
	l1.3-0.6l-0.5-1.6l1.6-0.4l-0.7-2l2.2-0.6l-1-2.2l2.8-0.6l-1.6-3.3l4-1l-2-3.9l4.5-1.2l-2.4-5.2l6-1.7L53.8,2.2L53.8,2.2z"/>
</svg>
